<?xml version="1.0" encoding="UTF-8"?>
<svg xmlns="http://www.w3.org/2000/svg" version="1.1" viewBox="0 0 1000 1000">
  <defs>
    <style>
      .cls-1 {
        fill: #009a98;
      }

      .cls-1, .cls-2 {
        fill-rule: evenodd;
      }

      .cls-2 {
        fill: #910b26;
      }
    </style>
  </defs>
  <g>
    <g id="Ebene_1">
      <g>
        <path class="cls-1" d="M931.96,792.09c-1.26-.97-3.31-1.69-6.16-2.11-2.83-.43-6.61-.66-11.35-.64-4.69-.02-8.45.21-11.26.64-2.83.41-4.86,1.14-6.12,2.11-1.26.99-1.86,2.29-1.84,3.95,0,1.14.37,2.13,1.07,3,.72.87,1.78,1.51,3.14,1.96,1.01.37,2.21.66,3.55.89,1.36.21,2.98.37,4.84.45,1.86.1,4.07.15,6.61.15,4.69,0,8.45-.21,11.31-.62,2.83-.43,4.9-1.12,6.16-2.07,1.28-.95,1.9-2.19,1.88-3.76.02-1.65-.6-2.96-1.84-3.95Z"></path>
        <path class="cls-1" d="M213.6,877.33c-2.09-2.09-4.5-3.71-7.25-4.88-2.75-1.17-5.73-1.76-8.91-1.78-3.18.02-6.14.61-8.89,1.78-2.75,1.17-5.18,2.79-7.27,4.88-2.09,2.09-3.73,4.5-4.9,7.23-1.17,2.73-1.76,5.67-1.78,8.83.02,3.18.61,6.14,1.78,8.89,1.17,2.75,2.82,5.18,4.9,7.27,2.09,2.09,4.52,3.73,7.27,4.9,2.75,1.17,5.71,1.76,8.89,1.78,3.18-.02,6.16-.61,8.91-1.78,2.75-1.17,5.16-2.82,7.25-4.9,2.09-2.09,3.73-4.52,4.9-7.27,1.17-2.75,1.76-5.71,1.78-8.89-.02-3.16-.61-6.1-1.78-8.83-1.17-2.73-2.81-5.14-4.9-7.23Z"></path>
        <polygon class="cls-1" points="633.06 903.6 650.56 903.6 641.93 877.72 633.06 903.6"></polygon>
      </g>
      <path class="cls-1" d="M-3,0v1000h1005.16V0H-3ZM942.23,756.44v11.16h-82.71v-11.16h32.37v-16.24h-32.37v-11.16h82.71v11.16h-40.92v16.24h40.92ZM142.5,897.16c-.2,2.47-.49,4.74-.85,6.76-.36,2.02-.83,3.91-1.42,5.67-.57,1.78-1.28,3.5-2.09,5.18-2.33,4.74-5.27,8.75-8.85,11.99-3.56,3.24-7.7,5.71-12.39,7.37-4.7,1.66-9.88,2.51-15.57,2.51-6.44-.02-12.29-1.07-17.58-3.14-5.29-2.07-9.84-5-13.67-8.81-3.83-3.79-6.78-8.32-8.85-13.59-2.09-5.24-3.14-11.08-3.16-17.48.02-6.5,1.09-12.39,3.2-17.72,2.11-5.31,5.1-9.9,8.99-13.73,3.89-3.85,8.53-6.8,13.89-8.89,5.39-2.09,11.34-3.14,17.9-3.16,5.73,0,10.88.81,15.41,2.47,4.54,1.64,8.55,4.15,12.03,7.53,3.46,3.38,6.48,7.66,9.01,12.84l-20.05,8.26c-1.8-4.37-4.15-7.61-7.01-9.72-2.86-2.13-6.32-3.18-10.37-3.16-3.02.02-5.81.65-8.36,1.92-2.55,1.26-4.76,3.02-6.66,5.31-1.88,2.29-3.36,4.96-4.39,8.04-1.05,3.08-1.58,6.46-1.6,10.13,0,2.61.32,5.16.97,7.66.63,2.51,1.54,4.84,2.71,7.01,1.17,2.15,2.59,4.03,4.21,5.63,1.76,1.7,3.79,3,6.1,3.89,2.29.89,4.84,1.34,7.64,1.34,2.94,0,5.57-.51,7.92-1.52,2.33-1.01,4.27-2.49,5.81-4.44.53-.71.97-1.44,1.32-2.19.36-.75.67-1.6.93-2.55.24-.95.47-2.09.67-3.4h-17.26v-16.4h41.8c-.06,3.12-.18,5.91-.38,8.38ZM54.18,800.02l13.73-13.97c.32,2.41,1.09,4.31,2.31,5.73,1.21,1.42,2.71,2.13,4.5,2.17,2,0,3.5-.77,4.48-2.33.99-1.56,1.48-3.93,1.48-7.15v-55.65h21.02v56.02c0,2.27-.1,4.27-.3,6.04-.2,1.76-.55,3.34-1.01,4.78-.49,1.44-1.11,2.77-1.9,4.05-.81,1.28-1.8,2.55-2.98,3.85-2.57,2.75-5.57,4.84-8.99,6.3-3.42,1.46-7.15,2.19-11.18,2.21-4.48,0-8.47-.97-11.93-2.96-3.48-1.99-6.56-5-9.21-9.07ZM162.08,760.17v17.86h-23.69v13.97h25.03v17.86h-46.05v-81.05h46.05v17.86h-25.03v13.49h23.69ZM238.88,910.57c-2.23,5.25-5.37,9.8-9.4,13.71-4.03,3.89-8.77,6.93-14.22,9.07-5.43,2.17-11.38,3.26-17.82,3.3-6.5-.04-12.48-1.13-17.92-3.28-5.45-2.17-10.19-5.2-14.2-9.15-4.03-3.93-7.13-8.57-9.36-13.91-2.21-5.35-3.32-11.24-3.36-17.64.02-4.23.67-8.39,1.98-12.43,1.32-4.05,3.18-7.84,5.63-11.38,2.45-3.54,5.37-6.66,8.79-9.36,2.53-1.99,5.33-3.67,8.36-5.04,3.06-1.38,6.28-2.41,9.68-3.12,3.38-.71,6.85-1.07,10.39-1.07,7.05,0,13.45,1.24,19.18,3.73,5.75,2.47,10.77,6.18,15.09,11.1,3.42,3.91,6.04,8.28,7.84,13.1,1.8,4.82,2.71,9.88,2.73,15.21-.04,6.2-1.17,11.93-3.4,17.17ZM178,809.87v-81.05h21.02l38.76,49.58v-49.58h21.02v81.05h-21.02l-38.76-49.58v49.58h-21.02ZM302.79,870.55h-17.5v63.19h-21.02v-63.19h-17.13v-17.86h55.65v17.86ZM308.87,782.44c-.75-1.03-2.05-2-3.89-2.87-1.84-.89-4.39-1.8-7.66-2.75-3.04-.87-5.55-1.68-7.53-2.39-1.96-.71-3.58-1.42-4.86-2.11-1.3-.71-2.43-1.48-3.4-2.31-2-1.76-3.52-3.95-4.54-6.58-1.03-2.61-1.54-5.69-1.54-9.21.02-4.09.69-7.8,2-11.14,1.32-3.34,3.2-6.22,5.63-8.65,2.45-2.41,5.35-4.27,8.73-5.57,3.36-1.32,7.11-1.96,11.22-1.98,4.27,0,8.61.57,12.96,1.68,4.35,1.11,8.59,2.75,12.68,4.88l-8.38,16.4c-2.35-1.88-4.64-3.26-6.89-4.15-2.23-.89-4.56-1.34-6.97-1.32-1.68.02-3.2.32-4.54.93-1.36.61-2.43,1.44-3.24,2.47-.79,1.03-1.19,2.21-1.22,3.52,0,1.28.45,2.43,1.36,3.48.93,1.03,2.29,1.99,4.11,2.84.3.16.61.28.89.41.28.12.69.24,1.22.41.53.16,1.28.36,2.27.65l4.74,1.46c4.68,1.36,8.49,3.06,11.44,5.06,2.94,2.02,5.08,4.45,6.46,7.33,1.36,2.86,2.05,6.22,2.02,10.09.02,5.57-.91,10.27-2.79,14.12-1.86,3.85-4.74,6.99-8.63,9.46-2.69,1.7-5.77,3.02-9.21,3.95-3.44.91-7.11,1.38-10.96,1.4-4.94,0-9.82-.79-14.6-2.33-4.78-1.54-9.32-3.81-13.59-6.78l8.99-17.01c3.2,2.79,6.34,4.86,9.4,6.24,3.04,1.36,6.12,2.02,9.19,2.02,2.09,0,3.87-.35,5.41-.99,1.52-.65,2.69-1.58,3.52-2.75.85-1.17,1.28-2.57,1.28-4.15.02-1.44-.34-2.67-1.09-3.73ZM363.67,870.55h-17.5v63.19h-21.02v-63.19h-17.13v-17.86h55.65v17.86ZM426.37,921c-1.86,3.85-4.74,6.99-8.63,9.46-2.69,1.7-5.77,3.02-9.21,3.95-3.44.91-7.11,1.38-10.96,1.4-4.94,0-9.82-.79-14.6-2.33-4.78-1.54-9.32-3.81-13.59-6.78l8.99-17.01c3.2,2.8,6.34,4.86,9.4,6.24,3.04,1.36,6.12,2.03,9.19,2.03,2.09,0,3.87-.35,5.41-.99,1.52-.65,2.69-1.58,3.52-2.75.85-1.17,1.28-2.57,1.28-4.15.02-1.44-.34-2.67-1.09-3.73-.75-1.03-2.05-2-3.89-2.87-1.84-.89-4.39-1.8-7.66-2.75-3.04-.87-5.55-1.68-7.53-2.39-1.96-.71-3.58-1.42-4.86-2.11-1.3-.71-2.43-1.48-3.4-2.31-2-1.76-3.52-3.95-4.54-6.58-1.03-2.61-1.54-5.69-1.54-9.21.02-4.09.69-7.8,2-11.14,1.32-3.34,3.2-6.22,5.63-8.65,2.45-2.41,5.35-4.27,8.73-5.57,3.36-1.32,7.11-1.96,11.22-1.99,4.27,0,8.61.57,12.96,1.68,4.35,1.11,8.59,2.75,12.68,4.88l-8.38,16.4c-2.35-1.88-4.64-3.26-6.89-4.15-2.23-.89-4.56-1.34-6.97-1.32-1.68.02-3.2.32-4.54.93-1.36.61-2.43,1.44-3.24,2.47-.79,1.03-1.19,2.21-1.22,3.52,0,1.28.45,2.43,1.36,3.48.93,1.03,2.29,1.99,4.11,2.84.3.16.61.28.89.41.28.12.69.24,1.22.41.53.16,1.28.36,2.27.65l4.74,1.46c4.68,1.36,8.49,3.06,11.44,5.06,2.94,2.03,5.08,4.46,6.46,7.33,1.36,2.86,2.05,6.22,2.03,10.09.02,5.57-.91,10.27-2.79,14.12ZM500.73,880.27c-2.49-2.98-5.23-5.2-8.24-6.66-3.02-1.48-6.34-2.21-9.98-2.21-3.18.02-6.08.57-8.73,1.66-2.65,1.09-4.94,2.65-6.89,4.64-1.94,2.01-3.44,4.35-4.52,7.09-1.07,2.71-1.6,5.71-1.62,8.97,0,3.63.65,6.85,1.92,9.62,1.3,2.79,3.24,5.23,5.85,7.27,2.03,1.58,4.23,2.79,6.62,3.63,2.39.81,4.84,1.23,7.35,1.23,3.44.02,6.66-.67,9.66-2.07,3-1.38,5.85-3.52,8.57-6.44v24.91c-2.43.81-4.54,1.48-6.3,2-1.74.53-3.3.93-4.64,1.24-1.34.28-2.61.49-3.83.61-1.22.1-2.49.16-3.83.16-4.27-.02-8.49-.63-12.6-1.84-4.11-1.22-7.98-2.96-11.58-5.23-3.63-2.29-6.82-5.02-9.6-8.24-3.16-3.65-5.55-7.74-7.17-12.25-1.62-4.52-2.43-9.44-2.43-14.72.02-4.76.75-9.28,2.17-13.53,1.44-4.27,3.46-8.18,6.08-11.73,2.61-3.54,5.69-6.62,9.26-9.21,3.56-2.59,7.49-4.6,11.79-6.01,4.29-1.44,8.83-2.15,13.61-2.17,2.09,0,4.09.12,6.06.38,1.94.28,3.97.71,6.08,1.32,2.11.61,4.41,1.42,6.95,2.43v25.15ZM590.05,933.73h-21.02v-33.29h-30.5v33.29h-21.02v-81.05h21.02v31.35h30.5v-31.35h21.02v81.05ZM661.49,933.73l-5.22-14.1h-29.04l-5.59,14.1h-22.24l31.11-81.05h22.97l30.5,81.05h-22.48ZM739.63,933.73h-46.3v-81.05h21.02v63.19h25.27v17.86ZM798.8,933.73l-27.34-35.12v35.12h-21.02v-81.05h21.02v33.42l25.64-33.42h26l-32.08,38.4,35.12,42.65h-27.34ZM845.49,593.87l-5.91,4.47-6.04,4.33-6.17,4.18-6.3,4.03-6.42,3.88-6.54,3.73-6.65,3.58-6.76,3.42-6.87,3.26-6.97,3.1-7.06,2.94-7.15,2.78-7.24,2.61-7.33,2.45-7.4,2.28-7.48,2.11-7.55,1.93-7.61,1.76-7.68,1.58-7.74,1.4-7.79,1.22-7.84,1.04-7.88.85-7.92.67-7.96.48-7.99.29-8.02.1-15.68-.32-15.36-.95-15.04-1.58-14.7-2.19-14.35-2.79-13.99-3.38-13.61-3.95-13.23-4.52-12.83-5.07-12.42-5.62-11.99-6.15-2.35-1.36-.57-.2-13.34-5.28-12.93-5.85-12.5-6.41-12.06-6.96-11.6-7.49-11.13-8.02-14.89-12.02-.8,1.42c-34.63,59.14-94.64,89.4-162.56,88.61-36.39-1.25-69.92-11.02-102.48-27.06l-4.9-2.53-4.91-2.64-.41-.23-.56-.2c-32.86-12.44-60.66-30.13-89.4-50.13l79.24-184.66c9.93,22.86,25.95,63.99,42.82,67.08,22.66.74,28.59-22.59,28.44-41.16V85.32h211.01v40.67h24.69v8.92l6.67-4.89,11.74-7.55,12.21-7,12.67-6.44,13.11-5.87,13.54-5.29,13.95-4.71,14.36-4.11,14.74-3.5,15.12-2.89,15.48-2.26,15.83-1.63,16.17-.98,16.43-.33,7.44.06,7.3.18,7.23.31,7.15.43,7.08.56,7.01.68,6.94.81,6.88.93,6.81,1.06,6.74,1.18,6.67,1.31,6.6,1.44,6.54,1.56,6.48,1.69,6.41,1.82,6.34,1.94,6.28,2.07,6.22,2.2,6.15,2.33,6.09,2.45,6.03,2.58,5.96,2.71,5.9,2.84,5.84,2.97,5.78,3.09,5.72,3.22,5.66,3.35,5.6,3.48,5.54,3.6,5.48,3.73,5.43,3.86,5.46,4.05,3.11,2.5,2.86,2.33,2.77,2.29,2.7,2.26,2.62,2.24,2.54,2.21,2.47,2.19,2.4,2.18,2.34,2.16,2.28,2.16,2.21,2.15,2.16,2.15,2.1,2.16,2.05,2.17,2,2.18,1.95,2.2,1.91,2.22,1.86,2.23,1.82,2.26,1.78,2.29,1.75,2.32,1.71,2.36,1.68,2.39,1.65,2.43,1.63,2.48,1.6,2.52,1.58,2.57,1.57,2.63.74,1.28.59.61,1.93,2.04,1.88,2.05,1.83,2.06,1.79,2.08,1.74,2.09,1.7,2.12,1.66,2.14,1.63,2.17,1.6,2.21,1.58,2.24,1.55,2.28,1.53,2.33,1.51,2.38,1.5,2.43,1.49,2.49,6.51,11.25-128.35,47.7h129.75l.05,23.02-.09,10.58-.14,7.07h24.89l.03,11.49-.09,10.46-.2,10.13-.31,9.82-.43,9.51-.55,9.22-.67,8.93-.8,8.66-.92,8.39-1.06,8.13-1.19,7.89-1.32,7.65-1.46,7.42-1.6,7.21-1.75,7-1.9,6.8-2.05,6.62-2.2,6.44-2.36,6.27-2.51,6.11-2.68,5.96-2.84,5.82-3,5.69-3.17,5.57-3.35,5.46-3.52,5.36-3.7,5.27-3.88,5.19-4.06,5.11-4.24,5.05-4.43,5-4.62,4.96-5.17,5.17-5.32,5.03-5.47,4.9-5.62,4.76-5.77,4.61ZM851.33,802.24h41.67c-1.78-.97-3.16-1.94-4.19-2.87-1.03-.95-1.78-2-2.23-3.14-.43-1.14-.66-2.48-.64-4.03-.02-3.1.97-5.62,2.96-7.61,1.98-1.98,5.04-3.43,9.18-4.38,4.11-.95,9.36-1.41,15.77-1.41s12.19.46,16.51,1.41c4.32.93,7.54,2.36,9.63,4.3,2.09,1.94,3.12,4.42,3.12,7.44.02,1.63-.23,3.04-.7,4.22-.5,1.18-1.34,2.23-2.52,3.18-1.18.95-2.79,1.92-4.84,2.89h7.19v10.29h-90.9v-10.29ZM896.12,844.58c.58.95,1.38,1.65,2.46,2.09.43.21.95.35,1.55.48.6.1,1.36.17,2.25.21.91.04,2.02.06,3.39.06h36.46v10.54h-36.46c-.43,0-.93.02-1.51.04s-1.18.04-1.78.08c-.62.04-1.18.08-1.67.12-1.92.19-3.33.74-4.24,1.69-.91.97-1.36,2.34-1.34,4.13,0,1.14.29,2.17.85,3.14.56.95,1.3,1.67,2.25,2.19.58.31,1.53.56,2.83.72,1.32.19,2.85.27,4.61.27h36.46v10.29h-55.43v-10.29h6.82c-2.71-1.47-4.67-3.1-5.89-4.88-1.22-1.8-1.82-3.89-1.8-6.28-.02-2.71.58-4.88,1.8-6.51,1.22-1.65,3.18-2.96,5.89-3.91-1.86-.97-3.35-2.03-4.49-3.12-1.12-1.12-1.94-2.36-2.46-3.72-.5-1.36-.74-2.93-.74-4.69.02-3.93,1.07-6.9,3.14-8.95,2.09-2.05,5.08-3.06,9.01-3.08h44.15v10.29h-36.46c-2.75-.02-4.9.15-6.43.48-1.53.33-2.6.91-3.22,1.74-.62.81-.91,1.92-.89,3.37,0,1.36.29,2.54.89,3.49ZM941.05,922.19c-1.55,2.79-4.01,5.06-7.36,6.8-3.33,1.74-7.69,3.02-13.06,3.82-5.35.81-11.84,1.2-19.45,1.2-3.16,0-6.22-.06-9.18-.21-2.96-.15-5.7-.35-8.29-.62-2.56-.27-4.84-.62-6.84-1.03-4.3-.81-7.79-2.05-10.52-3.72-2.73-1.65-4.73-3.8-6.03-6.45-1.3-2.67-1.94-5.89-1.92-9.67-.02-3.41.56-6.36,1.74-8.85,1.16-2.48,3-4.57,5.5-6.28,2.5-1.71,5.75-3.12,9.76-4.22l4.34,10.42c-2.87.56-5.17,1.24-6.84,2.02-1.69.79-2.91,1.78-3.64,2.98-.72,1.18-1.07,2.67-1.05,4.42-.04,1.88.48,3.45,1.55,4.71,1.05,1.24,2.83,2.23,5.31,2.96,2.5.72,5.87,1.26,10.15,1.55,4.26.31,9.59.46,15.98.46s11.18-.15,15.29-.48c4.09-.31,7.38-.85,9.8-1.59,2.44-.74,4.17-1.74,5.23-3,1.05-1.28,1.57-2.85,1.55-4.73.02-2.38-.64-4.3-1.99-5.75-1.36-1.43-3.58-2.46-6.65-3.1-3.08-.64-7.17-.97-12.32-.95h-3.97v9.67h-9.42v-20.21h6.7c1.53.02,2.87.02,4.05.04,1.16.02,2.27.06,3.33.12,1.05.04,2.19.12,3.41.21,3.91.25,7.21.6,9.92,1.07,2.73.5,5.04,1.16,6.94,1.98,1.88.83,3.53,1.86,4.96,3.14,1.74,1.55,3.06,3.43,3.97,5.64.91,2.21,1.36,4.71,1.36,7.5.02,3.97-.74,7.34-2.29,10.13Z"></path>
      <path class="cls-1" d="M645.03,465.76l-1.09.29c-25.61,5.84-51.51,2.17-73.23-13.05l-1.51-1.19c-20.38-48.32-11.85-113.53,28.16-148.8v145.42h47.68v17.33h0Z"></path>
      <path class="cls-1" d="M675.84,279.41c6.2,6.39,11.07,13.46,16.22,20.73h-91.3c21.34-16.91,47.05-23.19,73.93-20.86l1.14.13h0Z"></path>
      <path class="cls-2" d="M367.84,525.85l-9.81-15.39-6.85-11.77-6.26-12.18-5.65-12.57-5.03-12.95-4.39-13.31-3.75-13.66-3.09-14-2.42-14.32-1.74-14.63-1.05-14.92-.35-15.2.35-15.55,1.05-15.25,1.74-14.93,2.42-14.6,3.09-14.26,3.76-13.91,4.41-13.54,5.05-13.16,5.67-12.77,6.29-12.36,6.89-11.94,7.49-11.5,8.07-11.05,8.35-9.57v-71.15h-170.78v311.24c2.75,66.84-67.47,85.34-91.26,24.89l-54.41,126.79,4.56,3.18,4.82,3.25,4.81,3.13,4.81,3.02,4.8,2.91,4.79,2.8,4.78,2.68,4.78,2.57,4.77,2.46,4.76,2.35,4.75,2.23,4.75,2.12,4.74,2.01,4.73,1.9,4.73,1.79,4.72,1.68,4.71,1.57,4.71,1.46,4.7,1.35,4.7,1.24,4.69,1.13,4.69,1.02,4.69.91,4.68.81,4.68.7,4.68.59,4.67.48,4.67.37,4.67.27,4.67.16,4.62.05,9.09-.21,8.89-.61,8.73-1.01,8.56-1.4,8.38-1.78,8.19-2.14,7.99-2.5,7.79-2.85,7.57-3.2,7.35-3.53,7.12-3.85,6.88-4.16,6.63-4.47,6.37-4.77,6.11-5.05,5.83-5.33,5.55-5.6,5.25-5.86,4.95-6.12,4.64-6.36,4.32-6.59,3.99-6.82,3.66-7.04,2.04-3.44h0Z"></path>
      <polygon class="cls-2" points="696.78 452.73 695.12 455.29 693.35 457.77 691.46 460.16 689.47 462.46 687.37 464.67 685.17 466.79 682.88 468.82 680.49 470.75 678 472.58 675.43 474.32 672.78 475.97 670.03 477.51 667.21 478.96 664.31 480.31 661.34 481.57 658.29 482.72 655.17 483.77 651.99 484.73 648.73 485.59 645.41 486.34 642.03 487 638.59 487.56 635.09 488.01 631.53 488.37 627.92 488.62 624.25 488.78 620.49 488.83 614.68 488.68 608.94 488.25 603.31 487.54 597.79 486.55 592.41 485.28 587.15 483.75 582.03 481.95 577.06 479.89 572.23 477.57 567.56 475.01 563.05 472.2 558.71 469.16 554.55 465.89 550.56 462.4 546.75 458.69 543.13 454.77 539.7 450.65 536.47 446.33 533.44 441.82 530.61 437.13 528 432.27 525.59 427.23 523.39 422.03 521.42 416.67 519.66 411.16 518.13 405.5 516.83 399.7 515.75 393.77 514.91 387.71 514.31 381.52 513.95 375.21 513.82 368.79 513.96 362 514.36 355.32 515.02 348.76 515.93 342.32 517.1 336.03 518.52 329.87 520.18 323.86 522.08 318 524.22 312.3 526.58 306.77 529.18 301.41 531.99 296.23 535.03 291.23 538.27 286.43 541.72 281.83 545.38 277.43 549.24 273.25 553.28 269.29 557.52 265.56 561.94 262.06 566.53 258.8 571.29 255.8 576.22 253.05 581.3 250.56 586.54 248.35 591.92 246.41 597.43 244.75 603.07 243.39 608.84 242.31 614.72 241.54 620.71 241.08 626.74 240.92 630.04 240.96 633.21 241.07 636.32 241.26 639.38 241.52 642.38 241.87 645.32 242.29 648.22 242.8 651.06 243.39 653.85 244.07 656.6 244.84 659.29 245.7 661.93 246.64 664.53 247.68 667.08 248.81 669.57 250.02 672.02 251.34 674.42 252.74 676.78 254.23 679.08 255.81 681.34 257.49 683.56 259.25 685.73 261.1 687.86 263.04 689.95 265.07 692 267.18 694.02 269.39 696 271.67 697.96 274.05 699.88 276.51 701.78 279.06 701.93 279.27 864.81 218.73 863.44 216.37 862.01 213.98 860.58 211.65 859.14 209.38 857.68 207.16 856.2 204.99 854.71 202.86 853.18 200.77 851.64 198.71 850.06 196.68 848.44 194.68 846.79 192.7 845.09 190.73 843.35 188.77 841.56 186.81 839.72 184.86 837.81 182.91 835.85 180.95 833.82 178.98 831.73 176.99 829.56 174.99 827.32 172.96 825 170.9 822.6 168.81 820.11 166.69 817.54 164.53 814.87 162.33 812.11 160.08 809.36 157.87 804.38 154.17 799.29 150.56 794.15 147.06 788.96 143.69 783.72 140.44 778.43 137.31 773.08 134.3 767.68 131.41 762.23 128.64 756.72 125.99 751.15 123.46 745.53 121.05 739.84 118.76 734.09 116.58 728.28 114.53 722.41 112.59 716.48 110.77 710.47 109.07 704.41 107.48 698.27 106.02 692.07 104.67 685.79 103.44 679.44 102.32 673.03 101.33 666.54 100.45 659.97 99.69 653.33 99.04 646.61 98.51 639.82 98.1 632.94 97.81 625.99 97.63 619.01 97.57 603.27 97.89 587.93 98.82 572.94 100.36 558.32 102.5 544.07 105.22 530.21 108.51 516.75 112.37 503.69 116.77 491.05 121.72 478.83 127.19 467.05 133.18 455.72 139.68 444.84 146.67 434.43 154.14 424.48 162.09 415.03 170.51 406.06 179.38 397.6 188.7 389.64 198.45 382.21 208.63 375.31 219.23 368.95 230.24 363.14 241.65 357.9 253.45 353.23 265.64 349.14 278.2 345.65 291.13 342.76 304.41 340.5 318.05 338.87 332.02 337.88 346.33 337.55 360.95 337.88 375.22 338.87 389.18 340.49 402.84 342.75 416.18 345.63 429.2 349.1 441.88 353.17 454.21 357.82 466.18 363.04 477.8 368.82 489.03 375.14 499.88 381.99 510.34 389.37 520.39 397.26 530.04 405.65 539.25 414.54 548.03 423.9 556.37 433.74 564.26 444.03 571.68 454.78 578.62 465.97 585.07 477.58 591.03 489.62 596.47 502.06 601.4 514.9 605.79 528.13 609.63 541.74 612.91 555.71 615.63 570.04 617.76 584.71 619.3 599.71 620.23 615.07 620.54 622.85 620.45 630.63 620.17 638.38 619.7 646.1 619.05 653.78 618.22 661.41 617.21 669 616.02 676.53 614.65 684.01 613.11 691.43 611.4 698.78 609.52 706.06 607.47 713.27 605.25 720.4 602.87 727.44 600.33 734.4 597.63 741.27 594.77 748.05 591.75 754.72 588.58 761.29 585.25 767.75 581.78 774.1 578.15 780.33 574.38 786.44 570.47 792.43 566.41 798.29 562.22 804.01 557.88 809.6 553.41 815.04 548.81 820.34 544.07 825.48 539.21 830.46 534.23 834.9 529.46 839.19 524.63 843.28 519.76 847.19 514.84 850.91 509.86 854.46 504.8 857.83 499.67 861.03 494.44 864.07 489.11 866.95 483.66 869.67 478.09 872.23 472.37 874.64 466.51 876.9 460.49 879.02 454.29 881 447.91 882.83 441.34 884.52 434.56 886.08 427.56 887.51 420.34 888.8 412.88 889.96 405.17 890.99 397.21 891.9 388.97 892.68 380.47 893.34 371.68 893.89 362.59 894.31 353.2 894.62 343.49 894.82 333.46 894.91 323.1 894.9 320.25 617.46 320.25 617.46 428.32 707.04 428.32 702.25 441.68 701.06 444.56 699.76 447.36 698.33 450.09 696.78 452.73 696.78 452.73"></polygon>
    </g>
  </g>
</svg>
